<?xml version="1.0" encoding="UTF-8"?>
<svg xmlns="http://www.w3.org/2000/svg" xmlns:xlink="http://www.w3.org/1999/xlink" width="32" height="35.93" viewBox="0 0 32 35.93">
<path fill-rule="nonzero" fill="rgb(0%, 84.705883%, 100%)" fill-opacity="1" d="M 210.484375 73.824219 C 207.757812 72.890625 205.011719 72.023438 202.242188 71.226562 C 202.707031 69.328125 203.136719 67.449219 203.515625 65.605469 C 209.753906 35.324219 205.675781 10.929688 191.746094 2.898438 C 178.390625 -4.800781 156.550781 3.226562 134.492188 22.425781 C 132.320312 24.320312 130.195312 26.269531 128.117188 28.273438 C 126.730469 26.941406 125.316406 25.632812 123.878906 24.355469 C 100.757812 3.828125 77.585938 -4.820312 63.671875 3.234375 C 50.328125 10.957031 46.378906 33.890625 51.996094 62.589844 C 52.554688 65.429688 53.183594 68.257812 53.886719 71.066406 C 50.605469 72 47.441406 72.992188 44.414062 74.046875 C 17.308594 83.496094 0 98.308594 0 113.667969 C 0 129.53125 18.582031 145.445312 46.8125 155.09375 C 49.101562 155.875 51.410156 156.597656 53.734375 157.261719 C 52.976562 160.285156 52.308594 163.332031 51.722656 166.398438 C 46.367188 194.597656 50.550781 216.988281 63.855469 224.664062 C 77.601562 232.589844 100.667969 224.445312 123.128906 204.808594 C 124.953125 203.210938 126.734375 201.570312 128.472656 199.886719 C 130.71875 202.054688 133.027344 204.160156 135.390625 206.199219 C 157.148438 224.921875 178.636719 232.480469 191.933594 224.785156 C 205.664062 216.835938 210.125 192.78125 204.332031 163.519531 C 203.875 161.226562 203.363281 158.945312 202.796875 156.675781 C 204.417969 156.195312 206.007812 155.703125 207.558594 155.1875 C 236.90625 145.464844 256 129.746094 256 113.667969 C 256 98.25 238.132812 83.34375 210.484375 73.824219 Z M 204.117188 144.808594 C 202.71875 145.269531 201.28125 145.71875 199.816406 146.152344 C 196.578125 135.894531 192.207031 124.988281 186.855469 113.722656 C 191.960938 102.722656 196.164062 91.953125 199.3125 81.765625 C 201.933594 82.523438 204.472656 83.320312 206.925781 84.164062 C 230.613281 92.320312 245.0625 104.378906 245.0625 113.667969 C 245.0625 123.5625 229.457031 136.410156 204.117188 144.808594 Z M 193.605469 165.640625 C 196.164062 178.582031 196.53125 190.28125 194.835938 199.429688 C 193.308594 207.648438 190.242188 213.128906 186.453125 215.320312 C 178.386719 219.992188 161.132812 213.921875 142.523438 197.910156 C 140.324219 196.011719 138.179688 194.054688 136.089844 192.039062 C 143.300781 184.152344 150.511719 174.980469 157.546875 164.792969 C 169.921875 163.695312 181.613281 161.898438 192.21875 159.449219 C 192.730469 161.503906 193.191406 163.566406 193.605469 165.640625 Z M 87.277344 214.515625 C 79.394531 217.296875 73.117188 217.378906 69.320312 215.191406 C 61.246094 210.53125 57.890625 192.554688 62.46875 168.4375 C 63.011719 165.589844 63.636719 162.753906 64.335938 159.9375 C 74.824219 162.257812 86.429688 163.925781 98.835938 164.933594 C 105.917969 174.898438 113.335938 184.0625 120.8125 192.082031 C 119.222656 193.621094 117.597656 195.117188 115.933594 196.574219 C 106 205.257812 96.046875 211.417969 87.277344 214.515625 Z M 50.351562 144.746094 C 37.867188 140.480469 27.558594 134.933594 20.492188 128.882812 C 14.140625 123.445312 10.9375 118.046875 10.9375 113.667969 C 10.9375 104.347656 24.835938 92.457031 48.011719 84.375 C 50.824219 83.394531 53.769531 82.46875 56.824219 81.601562 C 60.027344 92.023438 64.230469 102.917969 69.300781 113.933594 C 64.164062 125.113281 59.902344 136.183594 56.667969 146.726562 C 54.546875 146.117188 52.441406 145.457031 50.351562 144.746094 Z M 62.726562 60.488281 C 57.917969 35.898438 61.113281 17.351562 69.152344 12.699219 C 77.71875 7.738281 96.65625 14.808594 116.617188 32.53125 C 117.917969 33.691406 119.199219 34.875 120.457031 36.078125 C 113.019531 44.066406 105.671875 53.15625 98.648438 63.066406 C 86.609375 64.183594 75.085938 65.972656 64.488281 68.375 C 63.835938 65.761719 63.25 63.132812 62.726562 60.488281 Z M 173.15625 87.753906 C 170.652344 83.433594 168.054688 79.164062 165.371094 74.953125 C 173.539062 75.984375 181.363281 77.355469 188.714844 79.03125 C 186.507812 86.105469 183.757812 93.496094 180.519531 101.078125 C 178.152344 96.585938 175.699219 92.144531 173.15625 87.753906 Z M 128.121094 43.894531 C 133.167969 49.359375 138.21875 55.460938 143.1875 62.078125 C 133.109375 61.605469 123.011719 61.601562 112.929688 62.074219 C 117.90625 55.515625 123 49.421875 128.121094 43.894531 Z M 82.800781 87.828125 C 80.289062 92.1875 77.878906 96.601562 75.574219 101.066406 C 72.390625 93.515625 69.664062 86.089844 67.441406 78.914062 C 74.746094 77.28125 82.535156 75.945312 90.648438 74.933594 C 87.933594 79.167969 85.316406 83.46875 82.800781 87.828125 Z M 90.882812 153.183594 C 82.496094 152.246094 74.59375 150.980469 67.289062 149.390625 C 69.550781 142.089844 72.335938 134.503906 75.589844 126.789062 C 77.902344 131.261719 80.324219 135.675781 82.84375 140.035156 C 85.4375 144.515625 88.125 148.902344 90.882812 153.183594 Z M 128.425781 184.210938 C 123.242188 178.621094 118.070312 172.433594 113.023438 165.777344 C 117.925781 165.972656 122.921875 166.070312 128 166.070312 C 133.21875 166.070312 138.375 165.953125 143.453125 165.726562 C 138.46875 172.5 133.433594 178.695312 128.425781 184.210938 Z M 180.621094 126.394531 C 184.046875 134.195312 186.929688 141.738281 189.21875 148.914062 C 181.796875 150.609375 173.78125 151.972656 165.339844 152.984375 C 168.042969 148.695312 170.664062 144.355469 173.199219 139.960938 C 175.773438 135.492188 178.25 130.972656 180.621094 126.394531 Z M 163.726562 134.496094 C 159.847656 141.230469 155.75 147.839844 151.445312 154.3125 C 143.640625 154.863281 135.820312 155.136719 128 155.132812 C 120.03125 155.132812 112.285156 154.886719 104.820312 154.402344 C 100.402344 147.945312 96.226562 141.328125 92.308594 134.554688 C 88.410156 127.820312 84.765625 120.941406 81.386719 113.929688 C 84.757812 106.914062 88.390625 100.03125 92.277344 93.292969 C 96.160156 86.550781 100.300781 79.960938 104.6875 73.53125 C 112.300781 72.957031 120.109375 72.65625 128 72.65625 C 135.925781 72.65625 143.742188 72.960938 151.355469 73.539062 C 155.695312 79.957031 159.808594 86.527344 163.6875 93.234375 C 167.589844 99.960938 171.269531 106.808594 174.726562 113.773438 C 171.304688 120.808594 167.636719 127.722656 163.726562 134.496094 Z M 186.285156 12.371094 C 194.855469 17.316406 198.191406 37.253906 192.804688 63.398438 C 192.460938 65.066406 192.074219 66.765625 191.65625 68.488281 C 181.03125 66.035156 169.5 64.214844 157.425781 63.078125 C 150.390625 53.0625 143.101562 43.957031 135.785156 36.070312 C 137.703125 34.222656 139.664062 32.421875 141.671875 30.671875 C 160.574219 14.226562 178.238281 7.730469 186.285156 12.371094 Z M 128 90.808594 C 140.625 90.808594 150.859375 101.042969 150.859375 113.667969 C 150.859375 126.292969 140.625 136.527344 128 136.527344 C 115.375 136.527344 105.140625 126.292969 105.140625 113.667969 C 105.140625 101.042969 115.375 90.808594 128 90.808594 Z M 128 90.808594 "/>
</svg>
